<mxfile host="Electron" modified="2025-06-15T08:24:22.347Z" agent="Mozilla/5.0 (X11; Linux x86_64) AppleWebKit/537.36 (KHTML, like Gecko) draw.io/22.1.2 Chrome/114.0.5735.289 Electron/25.9.4 Safari/537.36" etag="J8REJ402O83rHaxsAeQ3" version="22.1.2" type="device">
  <diagram name="Page-1" id="HckRc8Z72JDVbNmeubYD">
    <mxGraphModel dx="884" dy="563" grid="0" gridSize="10" guides="1" tooltips="1" connect="1" arrows="1" fold="1" page="1" pageScale="1" pageWidth="1169" pageHeight="827" math="0" shadow="0">
      <root>
        <mxCell id="0" />
        <mxCell id="1" parent="0" />
        <mxCell id="yF7ZHGPsOe9qh3HmZj88-34" value="" style="group" parent="1" vertex="1" connectable="0">
          <mxGeometry x="130.00378271318587" y="249" width="151.30243457362826" height="130.7091420600109" as="geometry" />
        </mxCell>
        <mxCell id="yF7ZHGPsOe9qh3HmZj88-29" value="" style="html=1;shape=mxgraph.basic.isocube;isoAngle=17.83;" parent="yF7ZHGPsOe9qh3HmZj88-34" vertex="1">
          <mxGeometry x="25.96621728681413" y="1" width="100" height="115" as="geometry" />
        </mxCell>
        <mxCell id="yF7ZHGPsOe9qh3HmZj88-30" value="" style="html=1;whiteSpace=wrap;aspect=fixed;shape=isoRectangle;fillColor=#dae8fc;strokeColor=#6c8ebf;" parent="yF7ZHGPsOe9qh3HmZj88-34" vertex="1">
          <mxGeometry x="25.96621728681413" width="99.67" height="59.8" as="geometry" />
        </mxCell>
        <mxCell id="yF7ZHGPsOe9qh3HmZj88-32" value="" style="html=1;whiteSpace=wrap;aspect=fixed;shape=isoRectangle;rotation=60;fillColor=#d5e8d4;strokeColor=#82b366;" parent="yF7ZHGPsOe9qh3HmZj88-34" vertex="1">
          <mxGeometry x="0.9762172868141334" y="42.97" width="99.36" height="59.62" as="geometry" />
        </mxCell>
        <mxCell id="yF7ZHGPsOe9qh3HmZj88-33" value="" style="html=1;whiteSpace=wrap;aspect=fixed;shape=isoRectangle;rotation=-60;flipH=0;flipV=1;fillColor=#f8cecc;strokeColor=#b85450;" parent="yF7ZHGPsOe9qh3HmZj88-34" vertex="1">
          <mxGeometry x="50.96621728681413" y="42.97" width="99.36" height="59.62" as="geometry" />
        </mxCell>
        <mxCell id="yF7ZHGPsOe9qh3HmZj88-40" value="" style="group" parent="1" vertex="1" connectable="0">
          <mxGeometry x="466" y="249" width="151.30243457362826" height="130.7091420600109" as="geometry" />
        </mxCell>
        <mxCell id="yF7ZHGPsOe9qh3HmZj88-41" value="" style="html=1;shape=mxgraph.basic.isocube;isoAngle=17.83;" parent="yF7ZHGPsOe9qh3HmZj88-40" vertex="1">
          <mxGeometry x="25.96621728681413" y="1" width="100" height="115" as="geometry" />
        </mxCell>
        <mxCell id="yF7ZHGPsOe9qh3HmZj88-42" value="" style="html=1;whiteSpace=wrap;aspect=fixed;shape=isoRectangle;fillColor=#f5f5f5;strokeColor=#666666;fontColor=#333333;" parent="yF7ZHGPsOe9qh3HmZj88-40" vertex="1">
          <mxGeometry x="25.96621728681413" width="99.67" height="59.8" as="geometry" />
        </mxCell>
        <mxCell id="yF7ZHGPsOe9qh3HmZj88-43" value="" style="html=1;whiteSpace=wrap;aspect=fixed;shape=isoRectangle;rotation=60;fillColor=#f5f5f5;strokeColor=#666666;fontColor=#333333;" parent="yF7ZHGPsOe9qh3HmZj88-40" vertex="1">
          <mxGeometry x="0.9762172868141334" y="42.97" width="99.36" height="59.62" as="geometry" />
        </mxCell>
        <mxCell id="yF7ZHGPsOe9qh3HmZj88-44" value="" style="html=1;whiteSpace=wrap;aspect=fixed;shape=isoRectangle;rotation=-60;flipH=0;flipV=1;fillColor=#dae8fc;strokeColor=#6c8ebf;" parent="yF7ZHGPsOe9qh3HmZj88-40" vertex="1">
          <mxGeometry x="50.96621728681413" y="42.97" width="99.36" height="59.62" as="geometry" />
        </mxCell>
        <mxCell id="yF7ZHGPsOe9qh3HmZj88-62" value="" style="verticalLabelPosition=bottom;html=1;verticalAlign=top;strokeWidth=2;shape=mxgraph.lean_mapping.physical_pull;pointerEvents=1;" parent="yF7ZHGPsOe9qh3HmZj88-40" vertex="1">
          <mxGeometry x="44" y="10" width="63" height="40" as="geometry" />
        </mxCell>
        <mxCell id="yF7ZHGPsOe9qh3HmZj88-45" value="" style="group" parent="1" vertex="1" connectable="0">
          <mxGeometry x="634" y="249" width="151.30243457362826" height="130.7091420600109" as="geometry" />
        </mxCell>
        <mxCell id="yF7ZHGPsOe9qh3HmZj88-46" value="" style="html=1;shape=mxgraph.basic.isocube;isoAngle=17.83;" parent="yF7ZHGPsOe9qh3HmZj88-45" vertex="1">
          <mxGeometry x="25.96621728681413" y="1" width="100" height="115" as="geometry" />
        </mxCell>
        <mxCell id="yF7ZHGPsOe9qh3HmZj88-47" value="" style="html=1;whiteSpace=wrap;aspect=fixed;shape=isoRectangle;fillColor=#dae8fc;strokeColor=#6c8ebf;" parent="yF7ZHGPsOe9qh3HmZj88-45" vertex="1">
          <mxGeometry x="25.96621728681413" width="99.67" height="59.8" as="geometry" />
        </mxCell>
        <mxCell id="yF7ZHGPsOe9qh3HmZj88-48" value="" style="html=1;whiteSpace=wrap;aspect=fixed;shape=isoRectangle;rotation=60;fillColor=#f5f5f5;strokeColor=#666666;fontColor=#333333;" parent="yF7ZHGPsOe9qh3HmZj88-45" vertex="1">
          <mxGeometry x="0.9762172868141334" y="42.97" width="99.36" height="59.62" as="geometry" />
        </mxCell>
        <mxCell id="yF7ZHGPsOe9qh3HmZj88-49" value="" style="html=1;whiteSpace=wrap;aspect=fixed;shape=isoRectangle;rotation=-60;flipH=0;flipV=1;fillColor=#d5e8d4;strokeColor=#82b366;" parent="yF7ZHGPsOe9qh3HmZj88-45" vertex="1">
          <mxGeometry x="50.96621728681413" y="42.97" width="99.36" height="59.62" as="geometry" />
        </mxCell>
        <mxCell id="yF7ZHGPsOe9qh3HmZj88-64" value="" style="verticalLabelPosition=bottom;html=1;verticalAlign=top;strokeWidth=2;shape=mxgraph.lean_mapping.physical_pull;pointerEvents=1;rotation=-60;" parent="yF7ZHGPsOe9qh3HmZj88-45" vertex="1">
          <mxGeometry x="25.966217286814185" y="50.639999999999986" width="47.37" height="44.27" as="geometry" />
        </mxCell>
        <mxCell id="yF7ZHGPsOe9qh3HmZj88-50" value="" style="group" parent="1" vertex="1" connectable="0">
          <mxGeometry x="802.0037827131858" y="249" width="151.30243457362826" height="130.7091420600109" as="geometry" />
        </mxCell>
        <mxCell id="yF7ZHGPsOe9qh3HmZj88-51" value="" style="html=1;shape=mxgraph.basic.isocube;isoAngle=17.83;" parent="yF7ZHGPsOe9qh3HmZj88-50" vertex="1">
          <mxGeometry x="25.96621728681413" y="1" width="100" height="115" as="geometry" />
        </mxCell>
        <mxCell id="yF7ZHGPsOe9qh3HmZj88-52" value="" style="html=1;whiteSpace=wrap;aspect=fixed;shape=isoRectangle;fillColor=#dae8fc;strokeColor=#6c8ebf;" parent="yF7ZHGPsOe9qh3HmZj88-50" vertex="1">
          <mxGeometry x="25.96621728681413" width="99.67" height="59.8" as="geometry" />
        </mxCell>
        <mxCell id="yF7ZHGPsOe9qh3HmZj88-53" value="" style="html=1;whiteSpace=wrap;aspect=fixed;shape=isoRectangle;rotation=60;fillColor=#f5f5f5;strokeColor=#666666;fontColor=#333333;" parent="yF7ZHGPsOe9qh3HmZj88-50" vertex="1">
          <mxGeometry x="0.9762172868141334" y="42.97" width="99.36" height="59.62" as="geometry" />
        </mxCell>
        <mxCell id="yF7ZHGPsOe9qh3HmZj88-54" value="" style="html=1;whiteSpace=wrap;aspect=fixed;shape=isoRectangle;rotation=-60;flipH=0;flipV=1;fillColor=#d5e8d4;strokeColor=#82b366;" parent="yF7ZHGPsOe9qh3HmZj88-50" vertex="1">
          <mxGeometry x="50.96621728681413" y="42.97" width="99.36" height="59.62" as="geometry" />
        </mxCell>
        <mxCell id="yF7ZHGPsOe9qh3HmZj88-66" value="" style="verticalLabelPosition=bottom;html=1;verticalAlign=top;strokeWidth=2;shape=mxgraph.lean_mapping.physical_pull;pointerEvents=1;" parent="1" vertex="1">
          <mxGeometry x="846" y="258" width="63" height="40" as="geometry" />
        </mxCell>
        <mxCell id="yF7ZHGPsOe9qh3HmZj88-69" value="" style="shape=cross;whiteSpace=wrap;html=1;aspect=fixed;fillColor=#333333;" parent="1" vertex="1">
          <mxGeometry x="445" y="299.35" width="30" height="30" as="geometry" />
        </mxCell>
        <mxCell id="yF7ZHGPsOe9qh3HmZj88-71" value="" style="group" parent="1" vertex="1" connectable="0">
          <mxGeometry x="298" y="249" width="151.30243457362826" height="130.7091420600109" as="geometry" />
        </mxCell>
        <mxCell id="yF7ZHGPsOe9qh3HmZj88-72" value="" style="html=1;shape=mxgraph.basic.isocube;isoAngle=17.83;" parent="yF7ZHGPsOe9qh3HmZj88-71" vertex="1">
          <mxGeometry x="25.96621728681413" y="1" width="100" height="115" as="geometry" />
        </mxCell>
        <mxCell id="yF7ZHGPsOe9qh3HmZj88-73" value="" style="html=1;whiteSpace=wrap;aspect=fixed;shape=isoRectangle;fillColor=#f5f5f5;strokeColor=#666666;fontColor=#333333;" parent="yF7ZHGPsOe9qh3HmZj88-71" vertex="1">
          <mxGeometry x="25.96621728681413" width="99.67" height="59.8" as="geometry" />
        </mxCell>
        <mxCell id="yF7ZHGPsOe9qh3HmZj88-74" value="" style="html=1;whiteSpace=wrap;aspect=fixed;shape=isoRectangle;rotation=60;fillColor=#dae8fc;strokeColor=#6c8ebf;" parent="yF7ZHGPsOe9qh3HmZj88-71" vertex="1">
          <mxGeometry x="0.9762172868141334" y="42.97" width="99.36" height="59.62" as="geometry" />
        </mxCell>
        <mxCell id="yF7ZHGPsOe9qh3HmZj88-75" value="" style="html=1;whiteSpace=wrap;aspect=fixed;shape=isoRectangle;rotation=-60;flipH=0;flipV=1;fillColor=#f8cecc;strokeColor=#b85450;" parent="yF7ZHGPsOe9qh3HmZj88-71" vertex="1">
          <mxGeometry x="50.96621728681413" y="42.97" width="99.36" height="59.62" as="geometry" />
        </mxCell>
        <mxCell id="yF7ZHGPsOe9qh3HmZj88-76" value="" style="verticalLabelPosition=bottom;html=1;verticalAlign=top;strokeWidth=2;shape=mxgraph.lean_mapping.physical_pull;pointerEvents=1;rotation=-30;" parent="yF7ZHGPsOe9qh3HmZj88-71" vertex="1">
          <mxGeometry x="76.76" y="50.57" width="47.37" height="44.27" as="geometry" />
        </mxCell>
        <mxCell id="yF7ZHGPsOe9qh3HmZj88-78" value="" style="html=1;shadow=0;dashed=0;align=center;verticalAlign=middle;shape=mxgraph.arrows2.arrow;dy=0.4;dx=17.86;notch=0;fillColor=#333333;strokeColor=none;" parent="1" vertex="1">
          <mxGeometry x="268" y="300.35" width="41" height="17.65" as="geometry" />
        </mxCell>
        <mxCell id="yF7ZHGPsOe9qh3HmZj88-79" value="" style="shape=cross;whiteSpace=wrap;html=1;aspect=fixed;fillColor=#333333;strokeColor=none;" parent="1" vertex="1">
          <mxGeometry x="615" y="299.35" width="30" height="30" as="geometry" />
        </mxCell>
        <mxCell id="yF7ZHGPsOe9qh3HmZj88-85" value="" style="group" parent="1" vertex="1" connectable="0">
          <mxGeometry x="784" y="306" width="25" height="25" as="geometry" />
        </mxCell>
        <mxCell id="yF7ZHGPsOe9qh3HmZj88-80" value="" style="rounded=0;whiteSpace=wrap;html=1;fillColor=#333333;container=0;strokeColor=none;" parent="yF7ZHGPsOe9qh3HmZj88-85" vertex="1">
          <mxGeometry width="25" height="5" as="geometry" />
        </mxCell>
        <mxCell id="yF7ZHGPsOe9qh3HmZj88-81" value="" style="rounded=0;whiteSpace=wrap;html=1;fillColor=#333333;container=0;strokeColor=none;" parent="yF7ZHGPsOe9qh3HmZj88-85" vertex="1">
          <mxGeometry y="10" width="25" height="5" as="geometry" />
        </mxCell>
        <mxCell id="yF7ZHGPsOe9qh3HmZj88-82" value="" style="rounded=0;whiteSpace=wrap;html=1;fillColor=#333333;container=0;strokeColor=none;" parent="yF7ZHGPsOe9qh3HmZj88-85" vertex="1">
          <mxGeometry y="20" width="25" height="5" as="geometry" />
        </mxCell>
      </root>
    </mxGraphModel>
  </diagram>
</mxfile>
